<svg viewBox="0 0 960 960" xml:space="preserve" xmlns="http://www.w3.org/2000/svg" enable-background="new 0 0 960 960"><path d="M546.3 609.8c-4.9.1-9 .2-12.7.2-8.1.2-14.4.3-23.2 0 1.2-7.5 3.9-23.1 9.9-55.2 1.2-6.2-2.1-12.2-7.9-14.5-5.8-2.4-12.3-.4-15.8 4.8-16 23.9-45.2 67.3-61.2 89.7-2.9 4-3.2 9.3-.9 13.7 2.3 4.4 6.8 7.1 11.8 7 4.2 0 8-.2 11.7-.3 5.3-.2 10.4-.3 16.4-.3-3.7 9-7.6 19.3-11.6 29.9-3.4 9.1-7 18.5-10.9 28.1-2.4 6-.2 12.5 5.2 15.9 2.2 1.4 4.6 2 7 2 3.5 0 7-1.5 9.6-4.3 29.7-32.6 50.4-56.7 82.9-95.4 3.3-4 4-9.3 1.8-14-2.3-4.5-6.9-7.4-12.1-7.3zm-76.8 99.1c2.5-6.4 4.8-12.6 7.2-18.7 5.6-14.7 10.9-28.7 15.7-39.4 1-2.3.8-4.9-.5-7-1.3-2.1-3.6-3.4-6.1-3.5-4.7-.2-8.8-.2-12.6-.2-5.9 0-10.9.1-15.8.3-2.5.1-5 .1-7.7.2 14.7-20.9 38.3-55.8 54.1-79.3-2.4 12.9-4.4 23.8-5.9 32.4-1.2 6.8-2.1 12.1-2.6 15.8-1.1 6.9-1.4 9.5.8 12.4 1.3 1.7 3.4 2.8 5.5 2.9 13.9.8 21.6.6 32.2.3 2.6-.1 5.3-.1 8.4-.2-28.1 33.6-47.5 56.2-72.7 84zm379-257c32.1 53.7 49.3 117 49.6 183.2 0 4.1-3.3 7.5-7.5 7.5-4.1 0-7.5-3.3-7.5-7.5-.3-63.5-16.7-124.2-47.5-175.6-7.4-12.4-15.6-24.6-24.3-36.2-2.5-3.3-1.8-8 1.5-10.5s8-1.8 10.5 1.5c9 12.1 17.4 24.7 25.2 37.6zM368.4 275.2c-108 33.3-190.1 110.5-231.1 217.3-17.3 44.9-25.3 93.2-24 143.5.1 4.1-3.2 7.6-7.3 7.7h-.2c-4 0-7.4-3.2-7.5-7.3-1.4-52.3 7-102.5 25-149.3C166 375.9 251.5 295.6 364 260.8c122.7-37.9 261-15.4 370.1 60.1 3.4 2.4 4.3 7 1.9 10.4-2.4 3.4-7 4.3-10.4 1.9-105.3-72.8-238.8-94.6-357.2-58zm471.8 48.3c2.1-2.9 1.9-6.9-.5-9.5-2.4-2.6-6.4-3.2-9.4-1.3C779 344 722.9 378.4 666.5 412.9c-49.9 30.6-100 61.3-147.1 90.2-3.8-.7-7.5-1.3-11.4-1.7-20.8-2.2-41.7.9-62 9-50.3 20.3-85.2 72.3-85 126.6.3 54.2 35.7 105.9 86.1 125.8 15.4 6.1 31.9 9 48.3 9 37.3 0 74.7-15 100.4-42.5 23.7-25.2 36.6-60 34.7-92.8-.4-6.8-1.3-13.6-2.6-20.2 31.2-42.6 63.6-87.7 95-131.3 39-54.1 79.2-110 117.3-161.5zM585 719c-15.8 16.9-37.8 29.2-61.7 34.6-23.9 5.4-49 3.7-70.6-4.8s-41.1-24.3-55-44.5C383.8 684 376.1 660.1 376 637c-.1-23.2 7.4-47.2 21.1-67.5 13.7-20.4 33.1-36.4 54.5-45.1 22.1-8.9 44.8-10.9 66.6-6.2.6.2 1.1.3 1.7.4 12.3 2.9 24.2 7.9 35.5 15 29.2 18.5 49.7 48.4 57.2 82.5 0 .1 0 .2.1.3 1.5 6.8 2.5 13.8 2.9 20.9 1.7 28.9-9.7 59.4-30.6 81.7zm38-121.4c-10.6-31.6-31.5-58.9-59.6-76.7-7.8-5-16-9-24.4-12.2 43.7-26.7 89.6-54.9 135.4-83 44.6-27.3 89.1-54.6 131.1-80.3-31.2 42.6-63.4 87.3-94.6 130.8-29.1 40.2-58.9 81.7-87.9 121.4zM492.2 283l.5 55.3c0 4.1-3.3 7.5-7.4 7.6h-.1c-4.1 0-7.5-3.3-7.5-7.4l-.5-55.3c0-4.1 3.3-7.5 7.4-7.6h.1c4.1 0 7.5 3.3 7.5 7.4zM285.1 427.2c3 2.9 3 7.6.1 10.6-1.5 1.5-3.4 2.2-5.4 2.2-1.9 0-3.8-.7-5.3-2.1L235 399.2c-3-2.9-3-7.6-.1-10.6s7.6-3 10.6-.1l39.6 38.7zm-76.4 217.1c0 4.1-3.3 7.5-7.4 7.6l-55.3.5h-.1c-4.1 0-7.5-3.3-7.5-7.4 0-4.1 3.3-7.5 7.4-7.6l55.3-.5h.1c4.1 0 7.5 3.3 7.5 7.4zm647.2 0c0 4.1-3.3 7.5-7.4 7.6l-55.3.5h-.1c-4.1 0-7.5-3.3-7.5-7.4 0-4.1 3.3-7.5 7.4-7.6l55.3-.5h.1c4.1 0 7.4 3.3 7.5 7.4z" id="outline" fill="#d3d3d3" class="fill-222222"></path></svg>